<?xml version="1.0" encoding="UTF-8" standalone="no"?>
<svg
   width="4096"
   height="4096"
   viewBox="0 0 1083.7333 1083.7333"
   version="1.1"
   id="svg8"
   xmlns="http://www.w3.org/2000/svg"
   xmlns:svg="http://www.w3.org/2000/svg"
   xmlns:rdf="http://www.w3.org/1999/02/22-rdf-syntax-ns#"
   xmlns:cc="http://creativecommons.org/ns#"
   xmlns:dc="http://purl.org/dc/elements/1.1/">
  <defs
     id="defs2" />
  <metadata
     id="metadata5">
    <rdf:RDF>
      <cc:Work
         rdf:about="">
        <dc:format>image/svg+xml</dc:format>
        <dc:type
           rdf:resource="http://purl.org/dc/dcmitype/StillImage" />
      </cc:Work>
    </rdf:RDF>
  </metadata>
  <g
     id="layer1">
    <path
       style="stroke:#000000;stroke-width:10;stroke-linecap:round;stroke-linejoin:round"
       d="m 271,37.066406 c -69.48439,0 -107.80558,-0.01605 -131.4082,0.929688 -23.60263,0.945733 -34.9633,3.49963 -44.265628,8.152343 C 76.709829,55.459707 60.588463,71.61267 51.300781,90.25 c -4.640864,9.312692 -7.185083,20.67464 -8.128906,44.31641 -0.943823,23.64177 -0.927734,62.03233 -0.927734,131.64453 v 541.76758 c 0,69.37928 -0.01651,107.88935 0.929687,131.69531 0.946202,23.80596 3.439755,35.29695 8.162109,44.73047 9.307413,18.5928 25.411471,34.7432 44.021485,44.0371 9.293058,4.641 20.642168,7.1861 44.240238,8.1289 23.59806,0.9428 61.91859,0.9258 131.40429,0.9258 h 541.38477 c 69.55426,0 107.8389,0.016 131.38672,-0.9297 23.54781,-0.9459 34.87034,-3.5193 44.12109,-8.1601 18.56527,-9.3136 34.66497,-25.447 43.95507,-44.03325 4.648,-9.29907 7.1948,-20.65633 8.1387,-44.29297 0.9438,-23.63664 0.9277,-62.02843 0.9277,-131.64063 V 266.20898 c 0,-69.61094 0.015,-108.00195 -0.9258,-131.63867 -0.9409,-23.63671 -3.476,-34.985559 -8.1054,-44.28906 C 1022.6141,71.650566 1006.4977,55.514272 987.92578,46.183594 978.62799,41.512322 967.25679,38.948645 943.6543,38 920.05181,37.051355 881.72985,37.066406 812.24414,37.066406 Z m 0,33.203125 h 541.24414 c 69.48571,0 107.96473,0.01753 130.07617,0.90625 22.11144,0.888716 25.36854,1.999566 30.69922,4.677735 10.68498,5.368203 23.82456,18.539264 29.13867,29.218754 2.663,5.35158 3.7741,8.65851 4.6563,30.81835 0.8821,22.15985 0.8984,60.70742 0.8984,130.31836 V 388.78516 H 75.447266 V 266.21094 c 0,-69.6122 0.01569,-108.15942 0.90039,-130.32032 0.884704,-22.16089 1.99668,-25.46575 4.669922,-30.83007 5.34053,-10.716696 18.475654,-23.872771 29.160152,-29.2168 5.3481,-2.674936 8.62782,-3.785696 30.74414,-4.671875 C 163.0382,70.285696 201.51561,70.269531 271,70.269531 Z m 517.28711,54.726559 v 209.0625 H 909.25977 V 124.99609 H 892.6582 Z m 33.20312,33.20313 h 54.56641 V 300.85547 H 821.49023 Z M 75.447266,421.98828 H 1007.7129 v 386.45117 c 0,69.6122 -0.018,108.15942 -0.9024,130.31446 -0.8846,22.15503 -1.9939,25.4413 -4.6601,30.77539 -5.33827,10.68001 -18.4968,23.85759 -29.14454,29.19922 -5.35576,2.68678 -8.50911,3.77618 -30.56445,4.66208 -22.05535,0.886 -60.50043,0.9024 -130.05469,0.9024 H 271.00195 c -69.4857,0 -107.96418,-0.017 -130.08008,-0.9004 -22.11589,-0.8836 -25.39508,-1.9918 -30.73046,-4.65627 -10.646889,-5.31708 -23.798995,-18.47594 -29.164066,-29.19336 -2.613888,-5.22158 -3.787923,-8.84941 -4.675782,-31.1875 -0.887858,-22.33809 -0.904296,-60.99767 -0.904296,-130.37695 z m 98.451174,98.69141 v 16.60156 148.49609 H 338.75586 V 520.67969 Z m 290.53906,0 v 16.60156 148.49609 H 629.29492 V 520.67969 Z m 279.96484,0 V 685.77734 H 909.25977 V 520.67969 H 892.6582 Z m -537.30078,33.20312 h 98.45117 v 98.69141 h -98.45117 z m 290.53906,0 h 98.45118 v 98.69141 h -98.45118 z m 279.96485,0 h 98.45117 v 98.69141 h -98.45117 z m -603.70703,186.6211 v 16.60156 148.49609 H 338.75586 V 740.50391 Z m 290.53906,0 v 16.60156 148.49609 H 629.29492 V 740.50391 Z m 279.96484,0 V 905.60156 H 909.25977 V 740.50391 H 892.6582 Z m -537.30078,33.20312 h 98.45117 v 98.69141 h -98.45117 z m 290.53906,0 h 98.45118 v 98.69141 h -98.45118 z m 279.96485,0 h 98.45117 v 98.69141 h -98.45117 z"
       id="path849" />
  </g>
</svg>
