<?xml version="1.0" encoding="UTF-8" standalone="no"?>
<svg
   width="4096"
   height="4096"
   viewBox="0 0 1083.7333 1083.7333"
   version="1.1"
   id="svg8"
   xmlns="http://www.w3.org/2000/svg"
   xmlns:svg="http://www.w3.org/2000/svg"
   xmlns:rdf="http://www.w3.org/1999/02/22-rdf-syntax-ns#"
   xmlns:cc="http://creativecommons.org/ns#"
   xmlns:dc="http://purl.org/dc/elements/1.1/">
  <defs
     id="defs2" />
  <metadata
     id="metadata5">
    <rdf:RDF>
      <cc:Work
         rdf:about="">
        <dc:format>image/svg+xml</dc:format>
        <dc:type
           rdf:resource="http://purl.org/dc/dcmitype/StillImage" />
      </cc:Work>
    </rdf:RDF>
  </metadata>
  <path
     id="path1090"
     style="stroke:#000000;stroke-width:20;stroke-linecap:round;stroke-linejoin:round"
     d="M 2616.75,140.79
           C 2395.02,160.45 2185.49,276.68 2051.49,454.38
             1929.65,615.96 1873.18,823.61 1896.44,1024.62
             1898.39,1032.63 1902.42,1039.82 1907.93,1045.59
             1907.93,1045.59 1229.42,1048.49 1229.42,1048.49
             1212.25,1048.56 1197.28,1057.94 1189.30,1071.86
             1189.30,1071.86 379.36,2487.96 379.36,2487.96
             375.46,2494.74 373.24,2502.62 373.24,2511.01
             373.24,2519.55 375.54,2527.54 379.55,2534.42
             379.55,2534.42 1201.56,3943.54 1201.56,3943.54
             1209.61,3957.32 1224.56,3966.58 1241.68,3966.58
             1241.74,3966.58 1241.81,3966.58 1241.88,3966.58
             1241.88,3966.58 2873.81,3959.62 2873.81,3959.62
             2890.98,3959.55 2905.95,3950.17 2913.93,3936.25
             2913.93,3936.25 3723.87,2520.16 3723.87,2520.16
             3727.77,2513.38 3730.00,2505.50 3730.00,2497.09
             3730.00,2488.56 3727.70,2480.57 3723.69,2473.69
             3723.69,2473.69 2901.67,1064.57 2901.67,1064.57
             2893.62,1050.79 2878.67,1041.53 2861.55,1041.53
             2861.49,1041.53 2861.42,1041.53 2861.35,1041.53
             2861.35,1041.53 2064.76,1044.93 2064.76,1044.93
             2221.88,1006.16 2366.82,920.33 2474.03,798.48
             2621.04,631.38 2692.57,402.76 2667.00,181.71
             2664.35,158.58 2644.70,140.61 2620.85,140.61
             2619.47,140.61 2618.10,140.67 2616.75,140.78
             2616.75,140.78 2616.75,140.79 2616.75,140.79 Z
           M 2578.27,239.34
           C 2586.26,418.78 2522.89,602.31 2404.29,737.11
             2297.35,858.66 2145.62,940.80 1985.60,966.47
             1978.40,804.66 2028.20,639.56 2125.67,510.31
             2233.77,366.95 2400.81,267.80 2578.27,239.34
             2578.27,239.34 2578.27,239.34 2578.27,239.34 Z
           M 2834.94,1134.54
           C 2834.94,1134.54 3629.91,2497.33 3629.91,2497.33
             3629.91,2497.33 2846.60,3866.84 2846.60,3866.84
             2846.60,3866.84 1268.29,3873.57 1268.29,3873.57
             1268.29,3873.57 473.32,2510.79 473.32,2510.79
             473.32,2510.79 1256.63,1141.27 1256.63,1141.27
             1256.63,1141.27 2834.94,1134.54 2834.94,1134.54 Z
           M 2061.53,1725.78
           C 1639.29,1725.78 1295.99,2068.91 1295.99,2490.97
             1295.99,2913.04 1639.29,3256.17 2061.53,3256.17
             2483.76,3256.17 2827.07,2913.04 2827.07,2490.97
             2827.07,2068.91 2483.76,1725.78 2061.53,1725.78 Z
           M 2061.53,1818.68
           C 2433.58,1818.68 2734.18,2119.14 2734.18,2490.97
             2734.18,2862.81 2433.58,3163.27 2061.53,3163.27
             1689.47,3163.27 1388.88,2862.81 1388.88,2490.97
             1388.88,2119.14 1689.47,1818.68 2061.53,1818.68
             2061.53,1818.68 2061.53,1818.68 2061.53,1818.68 Z
           M 37.80,0.00
           C 37.80,0.00 52.91,-15.12 52.91,-15.12
             52.91,-15.12 0.00,0.00 0.00,0.00
             0.00,0.00 52.91,15.12 52.91,15.12
             52.91,15.12 37.80,0.00 37.80,0.00 Z"
         transform="scale(0.26458333)" />
</svg>
