<?xml version="1.0" encoding="UTF-8" standalone="no"?>
<svg
   width="4096"
   height="4096"
   viewBox="0 0 1083.7333 1083.7333"
   version="1.1"
   id="svg8"
   xmlns="http://www.w3.org/2000/svg"
   xmlns:svg="http://www.w3.org/2000/svg"
   xmlns:rdf="http://www.w3.org/1999/02/22-rdf-syntax-ns#"
   xmlns:cc="http://creativecommons.org/ns#"
   xmlns:dc="http://purl.org/dc/elements/1.1/">
  <defs
     id="defs2" />
  <metadata
     id="metadata5">
    <rdf:RDF>
      <cc:Work
         rdf:about="">
        <dc:format>image/svg+xml</dc:format>
        <dc:type
           rdf:resource="http://purl.org/dc/dcmitype/StillImage" />
      </cc:Work>
    </rdf:RDF>
  </metadata>
  <path
     id="path1090"
     style="stroke:#000000;stroke-width:0;stroke-linecap:round;stroke-linejoin:round"
     d="M 290.54297 216.80664 A 59.999998 59.999998 0 0 0 230.30664 276.57031 L 216.57031 3786.8359 L 3760.5938 3779.9707 A 59.999998 59.999998 0 0 0 3820.4746 3719.8516 A 59.999998 59.999998 0 0 0 3760.3574 3659.9707 L 337.04297 3666.5996 L 350.30664 277.03516 A 59.999998 59.999998 0 0 0 290.54297 216.80664 z M 2289.9434 1251.2676 C 2277.6025 1251.3632 2265.2073 1251.9039 2252.7617 1252.9062 C 2053.6326 1268.9432 1872.18 1399.9289 1703.748 1546.4316 C 1535.3161 1692.9344 1378.4343 1859.3745 1247.5176 1958.8887 C 985.69344 2157.91 815.3139 2121.2352 611.60352 2085.3398 A 61.499151 61.499151 0 0 0 540.36914 2135.2344 A 61.499151 61.499151 0 0 0 590.26367 2206.4766 C 793.97402 2242.3719 1031.5104 2277.5809 1321.9492 2056.8086 C 1467.164 1946.4259 1622.5599 1780.0652 1784.4688 1639.2363 C 1946.3776 1498.4075 2113.3351 1387.5275 2262.6309 1375.5039 C 2411.9267 1363.4803 2574.3599 1446.0485 2729.2617 1560.502 C 2884.1636 1674.9554 3027.5615 1816.7152 3150.0957 1907.9004 C 3272.6301 1999.0856 3373.0217 2035.9208 3461.4492 2037.6309 C 3549.8767 2039.3409 3619.1748 2006.3989 3677.2441 1979.4609 A 61.499151 61.499151 0 0 0 3707.1562 1897.7871 A 61.499151 61.499151 0 0 0 3625.4902 1867.8848 C 3567.4209 1894.8227 3520.5801 1915.7536 3463.834 1914.6562 C 3407.0878 1913.5589 3333.2718 1890.8969 3223.5234 1809.2266 C 3113.775 1727.5561 2966.8262 1583.1062 2802.3496 1461.5781 C 2648.1528 1347.6456 2475.056 1249.8347 2289.9434 1251.2676 z M 1950.3516 2191.4473 C 1942.4478 2191.3077 1934.5322 2191.3251 1926.6074 2191.5059 C 1910.7578 2191.8676 1894.8786 2192.877 1879.0234 2194.5762 A 61.594396 61.594396 0 0 0 1824.3457 2262.3867 A 61.594396 61.594396 0 0 0 1892.1484 2317.0645 C 1916.8202 2314.4205 1941.8987 2313.8901 1967.0078 2315.3223 L 1967.0312 2315.3223 L 1967.0449 2315.3223 C 2006.5589 2317.5517 2046.6547 2324.298 2086.8457 2334.0059 C 2133.7947 2345.3797 2180.4995 2360.6627 2227.0586 2378.2227 C 2263.2809 2391.9032 2299.2783 2406.9358 2335.1875 2422.832 A 61.594396 61.594396 0 0 0 2416.4473 2391.4375 A 61.594396 61.594396 0 0 0 2385.0527 2310.1855 C 2347.5511 2293.5843 2309.4411 2277.6573 2270.5527 2262.9707 L 2270.5371 2262.9629 L 2270.5293 2262.9629 C 2220.6099 2244.1356 2169.1179 2227.1849 2115.8047 2214.2715 L 2115.7891 2214.2637 L 2115.7676 2214.2637 C 2070.1055 2203.2343 2022.7258 2195.0744 1973.9824 2192.3242 L 1974.0215 2192.332 C 1966.1476 2191.8829 1958.2554 2191.5869 1950.3516 2191.4473 z M 1655.0137 2269.7305 L 1655.0117 2269.7324 A 61.594396 61.594396 0 0 0 1623.9121 2276.7812 C 1590.6562 2294.2968 1558.7893 2313.4962 1528.0137 2333.5859 L 1528.0059 2333.5859 C 1459.1632 2378.5394 1395.6255 2427.9924 1333.332 2475.9004 C 1293.5862 2506.4212 1254.5912 2536.2594 1214.9844 2563.4434 A 61.594396 61.594396 0 0 0 1199.0547 2649.0801 A 61.594396 61.594396 0 0 0 1284.6992 2665.0098 C 1327.8471 2635.3954 1368.5609 2604.1694 1408.3984 2573.5781 L 1408.4199 2573.5703 L 1408.4355 2573.5547 C 1471.0511 2525.3989 1532.1586 2478.0045 1595.3535 2436.7383 L 1595.3594 2436.7324 C 1623.6053 2418.2943 1652.2024 2401.1126 1681.3223 2385.7754 A 61.594396 61.594396 0 0 0 1707.1152 2302.5723 A 61.594396 61.594396 0 0 0 1655.0137 2269.7305 z M 2578.4941 2411.0586 A 61.594396 61.594396 0 0 0 2527.2715 2445.2578 A 61.594396 61.594396 0 0 0 2555.2422 2527.752 C 2621.1466 2560.2805 2687.7572 2593.3721 2756.375 2624.1582 L 2756.3906 2624.166 L 2756.4062 2624.166 C 2805.4418 2646.1355 2855.8622 2667.0564 2908.2734 2684.75 C 2946.0905 2697.5464 2984.5939 2708.6823 3023.7031 2717.8652 A 61.594396 61.594396 0 0 0 3097.752 2671.9785 A 61.594396 61.594396 0 0 0 3051.8652 2597.9375 C 3016.8116 2589.7068 2982.0613 2579.6615 2947.7227 2568.041 L 2947.6992 2568.0332 L 2947.6777 2568.0273 C 2900.4825 2552.0946 2853.6682 2532.7591 2806.8008 2511.7617 L 2806.7715 2511.7461 C 2741.0932 2482.2779 2675.8297 2449.8974 2609.7637 2417.2891 A 61.594396 61.594396 0 0 0 2578.4941 2411.0586 z M 3608.4746 2593.6055 C 3555.2312 2601.7931 3502.7584 2609.813 3450.8203 2615.6758 L 3450.8047 2615.6836 L 3450.7891 2615.6836 C 3394.2585 2622.092 3338.0351 2625.8981 3282.4453 2625.4219 A 61.594396 61.594396 0 0 0 3220.3184 2686.4844 A 61.594396 61.594396 0 0 0 3281.3906 2748.6035 C 3343.2882 2749.1339 3404.4741 2744.9094 3464.6387 2738.0898 C 3519.8163 2731.8614 3573.9111 2723.5549 3627.1934 2715.3613 A 61.594396 61.594396 0 0 0 3678.7129 2645.1152 A 61.594396 61.594396 0 0 0 3608.4746 2593.6055 z M 1027.5156 2662.6328 A 61.594396 61.594396 0 0 0 1011.6875 2665.4746 C 986.25098 2673.5821 960.23438 2680.2502 933.83789 2685.5527 L 933.82422 2685.5527 L 933.81641 2685.5527 C 887.9289 2694.7891 840.5821 2699.8686 792.51172 2702.0664 L 792.49609 2702.0742 L 792.48242 2702.0742 C 727.65755 2705.0696 661.11922 2702.9065 593.06641 2700.584 A 61.594396 61.594396 0 0 0 529.40625 2760.0371 A 61.594396 61.594396 0 0 0 588.86719 2823.6992 C 656.96177 2826.0231 726.78774 2828.4262 798.13672 2825.1309 C 851.14569 2822.7073 904.74026 2817.0674 958.10156 2806.3281 L 958.125 2806.3223 C 988.73543 2800.1723 1019.1328 2792.3992 1049.0996 2782.8477 A 61.594396 61.594396 0 0 0 1089.0781 2705.4551 A 61.594396 61.594396 0 0 0 1043.541 2663.9844 A 61.594396 61.594396 0 0 0 1027.5156 2662.6328 z "
     transform="scale(0.26458333)" />
</svg>
