<?xml version="1.0" encoding="UTF-8" standalone="no"?>
<svg
   xmlns:dc="http://purl.org/dc/elements/1.1/"
   xmlns:cc="http://creativecommons.org/ns#"
   xmlns:rdf="http://www.w3.org/1999/02/22-rdf-syntax-ns#"
   xmlns:svg="http://www.w3.org/2000/svg"
   xmlns="http://www.w3.org/2000/svg"
   width="4096"
   height="4096"
   viewBox="0 0 1083.7333 1083.7334"
   version="1.1"
   id="svg8">
  <defs
     id="defs2" />
  <metadata
     id="metadata5">
    <rdf:RDF>
      <cc:Work
         rdf:about="">
        <dc:format>image/svg+xml</dc:format>
        <dc:type
           rdf:resource="http://purl.org/dc/dcmitype/StillImage" />
        <dc:title></dc:title>
      </cc:Work>
    </rdf:RDF>
  </metadata>
  <g
     id="layer1">
    <path
       id="path837"
       style="stroke:#000000;stroke-width:0;stroke-linecap:round;stroke-linejoin:round"
       d="M 2636.8594 80 C 2416.8742 99.514702 2207.2304 215.87538 2074.3027 392.24023 C 1953.3632 552.69951 1896.9153 760.39884 1920 960 C 2120.1457 942.24518 2312.1397 844.96463 2444.8281 694.07617 C 2590.6695 528.23084 2662.2323 299.38673 2636.8594 80 z M 2891.2461 1032.6426 L 1166.4844 1040 L 310.47461 2537.3672 L 1179.2285 4027.375 L 2903.9902 4020.0176 L 3760 2522.6523 L 2891.2461 1032.6426 z M 2045.7148 1756.1758 A 759.99998 759.99998 0 0 1 2805.7148 2516.1758 A 759.99998 759.99998 0 0 1 2045.7148 3276.1758 A 759.99998 759.99998 0 0 1 1285.7148 2516.1758 A 759.99998 759.99998 0 0 1 2045.7148 1756.1758 z "
       transform="scale(0.26458333)" />
  </g>
</svg>
