<?xml version="1.0" encoding="UTF-8" standalone="no"?>
<svg
   width="4096"
   height="4096"
   viewBox="0 0 1083.7333 1083.7334"
   version="1.1"
   id="svg8"
   xmlns="http://www.w3.org/2000/svg"
   xmlns:svg="http://www.w3.org/2000/svg"
   xmlns:rdf="http://www.w3.org/1999/02/22-rdf-syntax-ns#"
   xmlns:cc="http://creativecommons.org/ns#"
   xmlns:dc="http://purl.org/dc/elements/1.1/">
  <defs
     id="defs2" />
  <metadata
     id="metadata5">
    <rdf:RDF>
      <cc:Work
         rdf:about="">
        <dc:format>image/svg+xml</dc:format>
        <dc:type
           rdf:resource="http://purl.org/dc/dcmitype/StillImage" />
      </cc:Work>
    </rdf:RDF>
  </metadata>
  <g
     id="g76"
     transform="matrix(176.25674,0,0,172.39042,-14.262402,-26.510921)">
    <path
       style="stroke:#000000;stroke-width:0;stroke-linecap:round;stroke-linejoin:round"
       d="M 2.0585938,0.44726563 C 1.9189837,0.54603278 1.8138451,0.68932404 1.7597656,0.8515625 c -0.054079,0.1622384 -0.054381,0.3391734 -0.00195,0.5019531 0.069087,0.2145048 0.2068441,0.3713825 0.265625,0.5332031 0.053223,0.1465184 0.053223,0.3144192 0,0.4609376 -0.018215,0.051209 0.00781,0.1075911 0.058594,0.1269531 0.051779,0.019491 0.1095448,-0.00677 0.1289062,-0.058594 0.069695,-0.1918663 0.069695,-0.4057899 0,-0.5976562 C 2.1348082,1.6087796 1.9993175,1.4545816 1.9472656,1.2929687 1.9081975,1.1716686 1.9089198,1.0349595 1.9492187,0.9140625 1.9895177,0.79316556 2.0697935,0.68492746 2.1738281,0.61132812 c 0.046379,-0.0314754 0.057834,-0.0949178 0.025391,-0.14062499 -0.0321,-0.0457204 -0.095432,-0.0562757 -0.1406253,-0.0234375 z m 2.1171874,0 c -0.13961,0.0987671 -0.2447486,0.24205842 -0.2988281,0.40429687 -0.054079,0.1622384 -0.056334,0.3391734 -0.00391,0.5019531 0.069087,0.2145048 0.206844,0.3713824 0.265625,0.5332031 0.053223,0.1465184 0.053223,0.3144192 0,0.4609376 -0.018016,0.051759 0.00899,0.1083766 0.060547,0.1269531 0.051779,0.019491 0.1095449,-0.00677 0.1289063,-0.058594 0.069695,-0.1918663 0.069695,-0.4057899 0,-0.5976562 C 4.2519957,1.6087795 4.116505,1.4545816 4.0644531,1.2929687 4.025385,1.1716686 4.0261073,1.0349594 4.0664062,0.9140625 4.1067052,0.79316557 4.186981,0.68492745 4.2910156,0.61132812 c 0.04572,-0.0321 0.056275,-0.095432 0.023437,-0.14062499 -0.031995,-0.0444875 -0.093834,-0.0549392 -0.1386714,-0.0234375 z M 1.3476562,0.9609375 c -0.053974,-0.0131997 -0.108359,0.0201329 -0.1210937,0.0742187 -0.025224,0.1024034 -0.025224,0.2100967 0,0.3125 0.02792,0.1133507 0.082528,0.2082051 0.1347656,0.2949219 0.052139,0.086552 0.1018375,0.1665129 0.1328125,0.2460938 0.056107,0.1441504 0.056107,0.3128808 0,0.4570312 -0.019696,0.051232 0.00558,0.1087633 0.056641,0.1289063 0.051784,0.020997 0.1107259,-0.00452 0.1308594,-0.056641 0.074839,-0.1922747 0.074839,-0.4092879 0,-0.6015626 C 1.6408569,1.7116249 1.5811948,1.6219734 1.53125,1.5390625 1.4814043,1.4563161 1.4393176,1.3775711 1.4199219,1.2988281 c -0.017376,-0.070542 -0.017376,-0.1462543 0,-0.2167969 0.013316,-0.05337 -0.018972,-0.10747417 -0.072266,-0.1210937 z m 3.1738282,0 C 4.4675104,0.9477378 4.4131253,0.9810703 4.4003906,1.0351562 c -0.025224,0.1024034 -0.025224,0.2100967 0,0.3125 0.02792,0.1133507 0.082528,0.2082051 0.1347656,0.2949219 0.052138,0.086552 0.1037907,0.1665129 0.1347657,0.2460938 0.056107,0.1441503 0.056107,0.3128809 0,0.4570312 -0.019696,0.051232 0.00558,0.1087633 0.056641,0.1289063 0.051232,0.019696 0.1087632,-0.00558 0.1289062,-0.056641 0.074839,-0.1922746 0.074839,-0.409288 0,-0.6015626 C 4.814685,1.7116247 4.7569761,1.6219733 4.7070312,1.5390625 4.6571856,1.4563161 4.6150989,1.3775711 4.5957031,1.2988281 c -0.017376,-0.070542 -0.017376,-0.1462542 0,-0.2167969 0.0132,-0.053974 -0.020133,-0.10835895 -0.074219,-0.1210937 z M 3.1757813,1.90625 c -0.1254034,0 -0.2472637,0.051951 -0.3359375,0.140625 -0.088674,0.088674 -0.1386719,0.2085814 -0.1386719,0.3339844 0,0.1151393 0,0 0.1054545,0.1986898 C 2.2229691,2.6641923 1.6523521,2.9316322 1.234375,3.3496094 0.72517249,3.8588117 0.42968753,4.5708947 0.4296875,5.2910156 0.42881692,5.3467006 0.47360552,5.3923674 0.5292969,5.3925781 0.58498828,5.3923674 0.62977688,5.3467006 0.6289063,5.2910156 0.62890628,4.625783 0.90460943,3.9625779 1.375,3.4921875 1.8453904,3.021797 2.5105486,2.7460938 3.1757813,2.7460938 c 0.6652327,0 1.3284374,0.2757031 1.7988281,0.7460937 0.4703905,0.4703906 0.7460937,1.1335954 0.7460937,1.7988281 -8.706e-4,0.055685 0.043918,0.1013516 0.099609,0.1015625 0.055691,-2.109e-4 0.1004796,-0.045878 0.099609,-0.1015625 C 5.9199219,4.5708945 5.62639,3.8588118 5.1171875,3.3496094 4.6985918,2.9310138 4.127589,2.6544771 3.542983,2.5702691 3.6627699,2.3662055 3.6484375,2.4953754 3.6484375,2.3808594 3.6484375,2.255456 3.5984394,2.1355488 3.5097656,2.046875 3.4210917,1.9582009 3.3011843,1.90625 3.1757813,1.90625 Z m 0,0.2011719 c 0.070515,0 0.1434977,0.030216 0.1933593,0.080078 0.049862,0.049862 0.080078,0.1228439 0.080078,0.1933594 L 3.347642,2.5663843 3.0039063,2.5585743 2.9003906,2.3808633 c 0,-0.070515 0.030216,-0.1434979 0.080078,-0.1933594 0.049862,-0.049862 0.124797,-0.080078 0.1953127,-0.080078 z M 2.6113281,3.3457031 C 2.2960234,3.4632744 2.0090953,3.6545597 1.7792969,3.9003906 1.4927299,4.2069506 1.2979173,4.5965761 1.2246094,5.0097656 1.215347,5.0636016 1.2510008,5.1149082 1.3046875,5.125 1.3592055,5.1354612 1.4118104,5.0995145 1.421875,5.0449219 1.488294,4.6705606 1.6661436,4.3148612 1.9257812,4.0371094 2.134172,3.8141797 2.3957092,3.6398216 2.6816406,3.5332031 2.7334684,3.5138416 2.7597255,3.4560761 2.7402344,3.4042969 2.7208729,3.352469 2.6631073,3.3262119 2.6113281,3.3457031 Z M 0.26367188,5.4570312 c -0.12142336,0.010901 -0.12142336,0.188318 0,0.1992188 h 0.16992187 c 9.4349e-4,0.056435 -6.916e-5,0.1128691 0.007813,0.1679687 0.0125542,0.087765 0.0376635,0.1765398 0.10546875,0.2441407 0.0677336,0.067529 0.16581411,0.093898 0.32226563,0.1054687 0.15645147,0.01157 0.38883917,0.011719 0.76367187,0.011719 h 2.8652344 c 0.396876,0 0.6618887,-3.575e-4 0.8496093,-0.011719 0.1877207,-0.011361 0.3047791,-0.032642 0.3964844,-0.09375 0.091718,-0.061116 0.1384182,-0.1575586 0.1582031,-0.25 0.01258,-0.058778 0.01036,-0.1156686 0.011719,-0.1738281 h 0.171875 C 6.1208852,5.65517 6.1527282,5.635912 6.1699222,5.605469 6.2061302,5.540152 6.1605722,5.4596339 6.0859382,5.4570315 H 5.8203125 0.52929687 Z M 0.6328125,5.65625 h 5.0820312 c -0.00169,0.046095 -2.383e-4,0.097424 -0.00781,0.1328125 -0.013255,0.06193 -0.033777,0.098052 -0.074219,0.125 -0.040454,0.026956 -0.1208289,0.049892 -0.296875,0.060547 -0.1760461,0.010655 -0.4410146,0.011719 -0.8378906,0.011719 H 1.6328125 c -0.3748327,0 -0.6068074,-0.00127 -0.74804687,-0.011719 C 0.74352612,5.9641641 0.70809483,5.9463139 0.6875,5.9257812 0.66697687,5.90532 0.6481998,5.8615304 0.63867187,5.7949219 0.63312665,5.7561559 0.63392454,5.7044143 0.6328125,5.65625 Z"
       id="path1120-2" />
  </g>
</svg>
