<?xml version="1.0" encoding="UTF-8" standalone="no"?>
<svg
   width="4096"
   height="4096"
   viewBox="0 0 1083.7333 1083.7334"
   version="1.1"
   id="svg8"
   xmlns="http://www.w3.org/2000/svg"
   xmlns:svg="http://www.w3.org/2000/svg"
   xmlns:rdf="http://www.w3.org/1999/02/22-rdf-syntax-ns#"
   xmlns:cc="http://creativecommons.org/ns#"
   xmlns:dc="http://purl.org/dc/elements/1.1/">
  <defs
     id="defs2" />
  <metadata
     id="metadata5">
    <rdf:RDF>
      <cc:Work
         rdf:about="">
        <dc:format>image/svg+xml</dc:format>
        <dc:type
           rdf:resource="http://purl.org/dc/dcmitype/StillImage" />
      </cc:Work>
    </rdf:RDF>
  </metadata>
  <g
     id="layer1"
     style="display:inline"
     transform="matrix(1.0745174,0,0,1.1733677,-34.90803,-82.96222)">
    <g
       id="g19554"
       transform="matrix(-1,0,0,1,12.302627,2.5019113)">
      <path
         id="path6380"
         style="stroke:#000000;stroke-width:6;stroke-linecap:round;stroke-linejoin:round"
         d="m -690.03516,233.04688 c -30.26622,0.0295 -60.53344,0.452 -90.78591,1.37449 -21.76236,0.68009 -43.51974,1.62247 -65.24533,3.06725 -28.7886,2.66015 -57.81343,3.33705 -86.35811,8.03909 -17.78757,2.99996 -35.4602,7.65112 -51.61895,15.81368 -7.12321,3.62005 -14.32717,7.5359 -19.79054,13.4965 -5.9364,6.27997 -10.4504,13.96493 -12.3066,22.44922 -1.6884,7.64229 -1.506,15.76985 -0.2116,23.47822 2.3609,13.81708 7.6215,26.95162 13.1881,39.76397 3.44742,8.0154 7.18352,15.90512 10.48959,23.98091 0.89881,2.36852 2.00169,4.68238 2.43912,7.19524 2.73952,12.28909 4.84221,24.71186 6.72073,37.15855 6.64329,45.38082 8.16805,91.30412 9.00411,137.10176 0.55721,27.99985 0.87002,56.00928 1.82524,83.99787 2.38162,12.71802 1.58762,25.73192 0.77229,38.56192 -0.79285,12.21865 -1.99022,24.52506 -1.01862,36.74398 0.46686,5.61327 1.41616,11.02484 3.42773,16.27735 2.46529,6.63202 6.96727,12.53939 12.9043,16.42773 33.53206,-0.24225 67.06233,-0.67741 100.59361,-1.00364 80.56233,-0.8478 161.12539,-1.69608 241.68764,-2.50808 2.72377,0.33838 4.61761,2.7171 5.62109,5.09766 14.66671,26.3971 35.65878,49.13988 60.33989,66.48932 36.3829,25.65436 81.09203,40.08247 125.75259,38.55474 8.81517,-0.30891 17.59606,-1.29386 26.34008,-2.38355 19.67498,-2.49432 38.83269,-8.29071 56.78803,-16.66607 38.27912,-17.90349 70.78718,-47.81124 91.6644,-84.51518 9.82877,-17.27136 16.99071,-36.10047 20.78298,-55.64333 2.27212,-11.77021 3.34248,-23.84344 2.98771,-35.87824 -0.28195,-11.78871 -0.86425,-23.59729 -3.24705,-35.17494 -4.94963,-25.51522 -15.86292,-49.76942 -30.97716,-70.8698 -17.53806,-24.65804 -40.65222,-45.22741 -66.88381,-60.2091 -2.5613,-1.48671 -5.22428,-2.80644 -7.73906,-4.36792 -2.22996,-1.72937 -2.74971,-5.02514 -1.59285,-7.52118 3.83915,-8.66126 7.15694,-17.55458 11.19188,-26.12932 1.70764,-2.66923 5.61964,-3.06486 8.20271,-1.4956 6.53144,3.53458 13.19367,6.82354 19.86468,10.08532 20.50517,9.91757 41.64635,18.56493 63.65389,24.56274 20.92445,5.70227 42.66337,8.93579 64.40355,7.94609 15.09838,-0.67504 30.17653,-3.41095 44.46256,-8.30823 4.55806,-1.55371 8.77997,-3.85127 13.30663,-5.53134 8.90879,-3.41653 18.074659,-6.08678 27.119558,-9.09149 11.478969,-3.82895 23.075497,-7.67276 33.460469,-14.02536 4.11624,-2.53019 8.052379,-5.74275 10.309874,-10.10285 2.124778,-3.97025 1.512747,-8.8508 -0.376783,-12.78532 -0.842534,-1.60709 -1.508177,-3.42953 -2.909157,-4.64149 -3.121447,-1.8202 -6.398571,-3.35812 -9.581527,-5.06764 -27.223629,-14.10294 -55.446504,-26.59835 -85.258094,-34.11225 -19.61589,-4.91037 -39.84608,-7.49187 -60.08872,-6.35922 -15.25051,0.87813 -30.46429,3.79222 -44.85957,8.99547 -4.78411,1.97643 -9.37692,4.42268 -14.32138,5.99941 -12.69281,4.50855 -25.67823,8.14194 -38.35191,12.70827 -1.66422,0.5005 -3.41921,1.41067 -5.17834,0.79111 -3.27785,-0.94032 -5.22863,-5.00432 -3.75953,-8.12021 1.35326,-2.80771 2.80554,-5.56434 3.98509,-8.43392 1.58569,-3.8438 2.80874,-7.7437 3.02552,-11.92651 0.10764,-4.62724 -2.31995,-9.34068 -6.29214,-11.8247 -2.51029,-1.1062 -5.41373,-0.70525 -7.94553,0.111 -2.12725,0.75284 -4.16625,2.20893 -4.91288,4.42642 -8.60213,18.69921 -16.61523,37.65426 -24.54013,56.64953 -5.3542,12.81397 -10.62884,25.6629 -16.02764,38.45713 -1.73359,2.7026 -5.6041,3.2691 -8.34961,1.87891 -20.67398,-6.63139 -42.39204,-9.70915 -64.11601,-9.27264 -10.40913,-0.0186 -20.75917,0.99797 -31.08516,2.21795 -3.55319,-0.16946 -6.15199,-4.04627 -5.40039,-7.42773 1.60082,-32.84267 5.29927,-65.75804 13.95043,-97.55245 1.15263,-4.04162 1.88363,-8.35949 4.42501,-11.82696 1.88693,-2.74197 3.6867,-5.54338 5.26128,-8.47801 7.28072,-13.26537 11.45611,-28.33829 11.67475,-43.49317 0.11792,-10.53777 -1.86189,-21.24462 -6.71459,-30.66112 -4.28004,-8.24006 -10.81822,-15.34259 -18.63687,-20.24425 -8.44601,-5.34452 -18.30504,-7.9095 -27.88932,-10.59047 -23.90777,-6.52913 -48.53874,-10.03143 -73.20873,-11.91536 -36.66681,-2.79278 -73.46571,-2.41714 -110.20162,-3.41832 -7.94708,-0.19604 -15.89588,-0.36709 -23.84589,-0.32184 z m 12.88868,25.05859 c 40.85041,1.21049 81.79285,0.36837 122.55462,3.77807 25.93765,2.29159 51.86214,6.24368 76.77155,14.00123 6.01334,2.97244 11.26354,7.4336 15.33008,12.7539 4.09899,5.60779 6.45608,12.52364 6.30664,19.49219 0.0268,9.14616 -2.95745,17.96089 -6.43948,26.30815 -5.87413,14.06557 -13.81202,27.31183 -18.44529,41.85982 -1.85102,5.70256 -2.83811,11.62799 -2.57604,17.60774 -0.1777,4.60933 -1.08638,9.14742 -1.52307,13.73331 -3.01743,25.08776 -4.82877,50.29002 -6.12355,75.52028 -0.49401,2.84438 -3.2166,4.71036 -5.89648,5.24023 -31.29888,10.35606 -59.71823,29.01607 -82.02286,53.25463 -20.44933,22.17573 -35.97247,48.97371 -44.6185,77.92729 -5.83913,19.57596 -8.49678,40.14623 -7.36606,60.58837 0.48619,9.01801 1.76003,17.99927 3.66412,26.82883 1.15555,5.64792 2.68869,11.21618 3.73588,16.88526 0.0551,3.49959 -3.58278,6.23891 -6.9336,5.78906 -49.46369,0.41211 -98.92623,0.95019 -148.38941,1.41843 -46.39689,0.45427 -92.79378,0.90855 -139.19066,1.36282 -5.49824,1.34678 -11.43297,2.15211 -16.91201,0.28524 -5.62091,-2.02909 -9.49596,-7.5193 -10.42091,-13.31129 -1.57823,-7.30141 -0.75144,-14.80957 -0.34061,-22.18756 0.57657,-7.44916 1.12395,-14.98063 0.041,-22.41163 -0.50503,-8.38601 -0.47931,-16.79129 -0.73033,-25.18638 -1.21424,-56.57795 -0.52359,-113.24686 -4.78159,-169.7169 -2.24695,-30.24844 -6.02872,-60.4135 -12.15883,-90.13098 -0.78197,-4.1851 -1.74116,-8.42468 -3.54342,-12.26569 -6.26813,-15.37285 -13.87303,-30.25888 -18.49898,-46.25645 -2.3622,-8.30216 -3.99928,-17.0271 -2.89352,-25.67118 0.82006,-6.35302 3.4497,-12.52732 7.84145,-17.23538 4.7508,-5.15721 11.19166,-8.44621 17.81352,-10.51697 6.08251,-1.92632 12.43954,-2.68138 18.68244,-3.89222 16.43005,-2.93891 32.92103,-5.56523 49.50871,-7.44272 64.78443,-7.61314 130.11581,-7.44236 195.244,-8.1746 7.43707,-0.0782 14.87414,-0.15697 22.31122,-0.2349 z m 491.65625,163.36719 c 16.26603,0.0771 32.1859,4.39461 47.2884,10.15905 12.57306,4.80814 24.75341,10.56763 36.87175,16.40735 3.250216,2.26285 2.76999,7.85122 -0.64887,9.71682 -1.58739,0.77592 -3.26768,1.34806 -4.8921,2.0447 -10.21901,4.08364 -20.42817,8.16097 -30.45038,12.69666 -22.19842,9.54919 -47.60762,10.84247 -70.87918,4.62271 -9.88898,-2.60898 -19.42076,-6.50453 -28.40486,-11.37972 -6.2585,-1.91736 -12.89127,-3.2984 -18.3231,-7.15441 -2.33948,-1.64884 -4.33297,-4.21379 -4.30251,-7.1981 -0.1077,-2.87225 1.45644,-5.5901 3.69583,-7.30947 3.55975,-3.11785 8.04693,-4.82958 12.32127,-6.71224 9.27399,-3.8003 18.91673,-6.58282 28.09307,-10.56987 9.4413,-3.57565 19.5452,-5.30139 29.63068,-5.32348 z m -246.625,80.1582 c 12.98411,0.22223 26.06083,0.55051 38.82046,3.19534 7.284,1.37464 14.55852,3.02668 21.48813,5.69724 2.71408,1.85951 3.14772,5.94081 1.41016,8.60547 -1.89599,4.66245 -3.94736,9.29881 -6.75563,13.49348 -3.94412,7.03077 -6.13439,14.91786 -7.19011,22.82718 -0.53427,4.72883 -0.60302,9.71609 1.25242,14.18417 0.78316,1.61482 2.56791,2.82075 4.40484,2.48042 3.53522,-0.23051 6.65438,-2.13166 9.6239,-3.8966 1.21575,-0.81398 2.55906,-1.58834 3.57084,-2.57523 5.73471,-13.42219 11.16244,-26.97793 17.05272,-40.33569 1.96788,-2.8253 6.35251,-3.06108 8.94141,-0.97852 26.45953,14.76468 49.35998,36.08819 65.3009,61.90934 10.73933,17.2851 17.83637,36.74805 21.22253,56.79152 5.24019,26.30625 2.85153,53.95902 -6.11241,79.19424 -16.39353,46.79016 -53.60941,85.75781 -99.52934,104.41293 -13.62218,5.59504 -28.01746,9.23735 -42.62433,11.05292 -11.04146,1.54493 -22.19714,2.5732 -33.35613,2.12716 -30.12626,-0.99301 -59.80762,-10.17609 -85.63594,-25.62484 -25.39475,-15.1524 -47.25987,-36.39804 -62.45756,-61.81713 -11.66213,-19.56453 -19.09548,-41.73361 -20.91798,-64.47139 -1.21496,-11.88287 -1.75164,-23.91299 -0.2584,-35.79782 2.91903,-25.85018 12.7638,-50.72172 27.41467,-72.14939 24.01896,-35.31172 60.83509,-61.88947 102.18341,-72.82756 13.73862,-3.62756 27.94135,-5.48123 42.15144,-5.49724 z" />
    </g>
  </g>
</svg>
